<svg width="40" height="40" viewBox="0 0 40 40" fill="none" xmlns="http://www.w3.org/2000/svg">
<path d="M14.522 26.3104C14.0618 26.3104 13.6676 26.1484 13.3395 25.8246C13.0156 25.5007 12.8558 25.1087 12.8601 24.6484C12.8558 24.1967 13.0156 23.8111 13.3395 23.4915C13.6676 23.1676 14.0618 23.0057 14.522 23.0057C14.9567 23.0057 15.3402 23.1676 15.6726 23.4915C16.0092 23.8111 16.1797 24.1967 16.1839 24.6484C16.1797 24.9553 16.0987 25.2344 15.9411 25.4858C15.7876 25.7372 15.5852 25.9375 15.3338 26.0866C15.0866 26.2358 14.8161 26.3104 14.522 26.3104ZM20.0064 26.3104C19.5462 26.3104 19.152 26.1484 18.8239 25.8246C18.5 25.5007 18.3402 25.1087 18.3445 24.6484C18.3402 24.1967 18.5 23.8111 18.8239 23.4915C19.152 23.1676 19.5462 23.0057 20.0064 23.0057C20.4411 23.0057 20.8246 23.1676 21.157 23.4915C21.4936 23.8111 21.6641 24.1967 21.6683 24.6484C21.6641 24.9553 21.5831 25.2344 21.4254 25.4858C21.272 25.7372 21.0696 25.9375 20.8182 26.0866C20.571 26.2358 20.3004 26.3104 20.0064 26.3104ZM25.4908 26.3104C25.0305 26.3104 24.6364 26.1484 24.3082 25.8246C23.9844 25.5007 23.8246 25.1087 23.8288 24.6484C23.8246 24.1967 23.9844 23.8111 24.3082 23.4915C24.6364 23.1676 25.0305 23.0057 25.4908 23.0057C25.9254 23.0057 26.3089 23.1676 26.6413 23.4915C26.978 23.8111 27.1484 24.1967 27.1527 24.6484C27.1484 24.9553 27.0675 25.2344 26.9098 25.4858C26.7564 25.7372 26.554 25.9375 26.3026 26.0866C26.0554 26.2358 25.7848 26.3104 25.4908 26.3104Z" fill="#ACA7C4"/>
</svg>
